<svg xmlns="http://www.w3.org/2000/svg" viewBox="0 0 64 24" fill="#0F62FE">
  <!-- I -->
  <rect x="0" y="0" width="10" height="3"/>
  <rect x="3" y="3" width="4" height="3"/>
  <rect x="3" y="6" width="4" height="3"/>
  <rect x="3" y="9" width="4" height="3"/>
  <rect x="3" y="12" width="4" height="3"/>
  <rect x="3" y="15" width="4" height="3"/>
  <rect x="3" y="18" width="4" height="3"/>
  <rect x="0" y="21" width="10" height="3"/>
  <!-- B -->
  <rect x="14" y="0" width="14" height="3"/>
  <rect x="14" y="3" width="4" height="3"/>
  <rect x="24" y="3" width="4" height="3"/>
  <rect x="14" y="6" width="4" height="3"/>
  <rect x="24" y="6" width="4" height="3"/>
  <rect x="14" y="9" width="14" height="3"/>
  <rect x="14" y="12" width="14" height="3"/>
  <rect x="14" y="15" width="4" height="3"/>
  <rect x="25" y="15" width="4" height="3"/>
  <rect x="14" y="18" width="4" height="3"/>
  <rect x="25" y="18" width="4" height="3"/>
  <rect x="14" y="21" width="15" height="3"/>
  <!-- M -->
  <rect x="33" y="0" width="4" height="3"/>
  <rect x="57" y="0" width="4" height="3"/>
  <rect x="33" y="3" width="6" height="3"/>
  <rect x="55" y="3" width="6" height="3"/>
  <rect x="33" y="6" width="4" height="3"/>
  <rect x="40" y="6" width="4" height="3"/>
  <rect x="50" y="6" width="4" height="3"/>
  <rect x="57" y="6" width="4" height="3"/>
  <rect x="33" y="9" width="4" height="3"/>
  <rect x="42" y="9" width="10" height="3"/>
  <rect x="57" y="9" width="4" height="3"/>
  <rect x="33" y="12" width="4" height="3"/>
  <rect x="44" y="12" width="6" height="3"/>
  <rect x="57" y="12" width="4" height="3"/>
  <rect x="33" y="15" width="4" height="3"/>
  <rect x="57" y="15" width="4" height="3"/>
  <rect x="33" y="18" width="4" height="3"/>
  <rect x="57" y="18" width="4" height="3"/>
  <rect x="33" y="21" width="4" height="3"/>
  <rect x="57" y="21" width="4" height="3"/>
</svg>
